<svg width="284" height="202" viewBox="0 0 284 202" fill="none" xmlns="http://www.w3.org/2000/svg">
<path d="M202.014 93.2995C197.162 93.2995 192.357 92.1575 187.874 89.9388C183.391 87.7201 179.318 84.468 175.886 80.3683C172.455 76.2687 169.734 71.4016 167.877 66.0451C166.02 60.6886 165.064 54.9476 165.064 49.1498C165.064 35.6874 165.064 5.00003 165.064 5.00003C165.064 5.00003 193.939 5.00003 202.014 5.00003L202.014 93.2995Z" fill="#E2A7C5"/>
<path d="M239.991 92.2727C244.843 92.2727 249.648 91.144 254.131 88.9511C258.614 86.7582 262.687 83.5439 266.118 79.4919C269.549 75.4399 272.271 70.6295 274.128 65.3353C275.985 60.0411 276.941 54.3668 276.941 48.6364C276.941 42.9059 275.985 37.2316 274.128 31.9374C272.271 26.6432 269.549 21.8328 266.118 17.7808C262.687 13.7288 258.614 10.5146 254.131 8.32162C249.648 6.12869 244.843 5 239.991 5L239.991 92.2727Z" fill="#E2A7C5"/>
<path d="M202.014 197C197.162 197 192.357 195.858 187.874 193.639C183.391 191.421 179.318 188.168 175.887 184.069C172.455 179.969 169.734 175.102 167.877 169.746C166.02 164.389 165.064 158.648 165.064 152.85C165.064 147.052 166.02 141.311 167.877 135.955C169.734 130.598 172.455 125.731 175.887 121.632C179.318 117.532 183.391 114.28 187.874 112.061C192.357 109.842 197.162 108.701 202.014 108.701L202.014 197Z" fill="#E2A7C5"/>
<path d="M239.991 197C244.843 197 249.648 195.858 254.131 193.639C258.614 191.421 262.687 188.168 266.118 184.069C269.549 179.969 272.271 175.102 274.128 169.746C275.985 164.389 276.941 158.648 276.941 152.85C276.941 147.052 275.985 141.311 274.128 135.955C272.271 130.598 269.549 125.731 266.118 121.632C262.687 117.532 258.614 114.28 254.131 112.061C249.648 109.842 244.843 108.701 239.991 108.701L239.991 197Z" fill="#E2A7C5"/>
<path d="M102.454 39.626C102.454 30.1406 89.486 5.00007 70.1229 5.00003C104.263 5.00003 97.6935 5.00006 116.547 5.00003C138.967 4.99999 149.668 15.9194 149.668 39.7676V162.232C149.668 186.081 126.229 197 126.229 197C126.229 197 102.454 185.939 102.454 162.091V39.626Z" fill="#E15C72"/>
<path d="M165.064 5.00003V36.8289C182.985 36.8289 202.014 23.3531 202.014 5.00003H165.064Z" fill="#E15C72"/>
<path d="M7 52.2139C7 26.1384 28.1384 5.00003 54.2139 5.00003V5.00003V197V197C28.1384 197 7 175.862 7 149.786V52.2139Z" fill="#6B81FB"/>
<path d="M105.818 16.2486C118.788 29.5044 116.7 53.1301 116.7 53.1301C116.7 53.1301 93.5846 55.264 80.6152 42.0082C67.6458 28.7523 69.7336 5.12659 69.7336 5.12659C69.7336 5.12659 92.8488 2.99276 105.818 16.2486Z" fill="#1D1D1D"/>
<path d="M105.818 113.88C118.788 100.624 116.7 76.9982 116.7 76.9982C116.7 76.9982 93.5846 74.8644 80.6152 88.1202C67.6458 101.376 69.7336 125.002 69.7336 125.002C69.7336 125.002 92.8488 127.136 105.818 113.88Z" fill="#1D1D1D"/>
<path d="M105.818 185.751C118.788 172.496 116.7 148.87 116.7 148.87C116.7 148.87 93.5846 146.736 80.6152 159.992C67.6458 173.248 69.7336 196.873 69.7336 196.873C69.7336 196.873 92.8488 199.007 105.818 185.751Z" fill="#1D1D1D"/>
</svg>
