<svg width="162" height="158" viewBox="0 0 162 158" fill="none" xmlns="http://www.w3.org/2000/svg">
<rect x="121.777" width="6.37388" height="22.1368" rx="3.18694" transform="rotate(15 121.777 0)" fill="white"/>
<rect x="154.255" y="6.12775" width="6.37388" height="29.2454" rx="3.18694" transform="rotate(45 154.255 6.12775)" fill="white"/>
<rect x="160.35" y="35.853" width="6.37388" height="16.1716" rx="3.18694" transform="rotate(75 160.35 35.853)" fill="white"/>
<path d="M137.653 96.4049C137.653 113.459 137.205 128.272 129.615 138.914C122.127 149.414 107.325 156.253 77.4057 156.253C46.6712 156.253 31.8927 149.406 24.6088 138.929C20.9372 133.647 19.0586 127.299 18.1108 120.089C17.1613 112.865 17.1588 104.899 17.1588 96.4049C17.1588 63.3606 44.1231 36.5563 77.4057 36.5563C110.688 36.5563 137.653 63.3606 137.653 96.4049Z" stroke="white" stroke-width="3"/>
<path d="M16.4556 102.38C6.09803 101.584 0.919225 106.364 2.18866 115.683C3.18211 122.976 7.53129 128.24 14.4004 130.903C17.5848 132.138 20.084 132.817 22.0327 133.055" stroke="white" stroke-width="3"/>
<path d="M78.04 118.339C78.0251 118.735 77.742 119.31 76.8206 119.839C75.9209 120.355 74.5987 120.694 73.0758 120.636C71.553 120.579 70.2601 120.141 69.4019 119.558C68.5231 118.962 68.2843 118.366 68.2992 117.971C68.3142 117.575 68.5973 116.999 69.5186 116.471C70.4183 115.954 71.7406 115.615 73.2634 115.673C74.7863 115.73 76.0791 116.168 76.9373 116.751C77.8162 117.348 78.055 117.943 78.04 118.339Z" stroke="white" stroke-width="3"/>
<path d="M86.5682 132.916C83.6589 134.81 80.4009 133.306 76.8025 132.916C76.5533 132.889 74.2863 132.666 73.0465 132.645C71.9186 132.625 70.4172 132.916 69.666 133.017C67.8084 133.267 62.2874 133.893 60.2759 132.258" stroke="white" stroke-width="3" stroke-linecap="round"/>
<path d="M57.2509 106.094L57.5832 113.715C57.617 114.491 57.0157 115.147 56.2401 115.181L44.8878 115.676C39.521 115.91 34.9806 111.749 34.7466 106.382L34.6533 104.243C34.4168 98.8189 38.6225 94.2297 44.047 93.9932C51.0346 93.6885 56.9462 99.106 57.2509 106.094Z" stroke="white" stroke-width="3"/>
<path d="M58.1999 104.901L58.5991 114.056C58.6477 115.171 57.7831 116.115 56.6679 116.163L51.3933 116.393C48.8364 116.505 46.9788 115.702 45.5758 114.526C44.159 113.339 43.1858 111.754 42.4472 110.276C41.6629 108.708 41.4777 106.88 41.4754 105.539C41.4733 104.325 41.5379 103.116 41.7374 101.939C42.0569 100.055 42.8587 98.4418 43.7881 97.217C44.725 95.9823 45.7626 95.1797 46.5188 94.8772C49.0278 93.8737 51.8581 94.9968 54.1668 97.1624C56.4694 99.3223 58.0898 102.378 58.1999 104.901Z" fill="white" stroke="white"/>
<path d="M91.7084 107.68L91.0381 115.014C90.9675 115.787 91.537 116.471 92.3101 116.541L104.101 117.619C109.451 118.108 114.184 114.168 114.673 108.818L114.848 106.897C115.353 101.374 111.285 96.4865 105.761 95.9816C98.6498 95.3317 92.3583 100.569 91.7084 107.68Z" stroke="white" stroke-width="3"/>
<ellipse cx="106.03" cy="106.786" rx="9.90237" ry="11.951" transform="rotate(4.02831 106.03 106.786)" fill="white"/>
<path d="M138.565 106.848C149.262 106.05 154.61 110.841 153.299 120.182C152.273 127.491 147.781 132.766 140.687 135.436C137.742 136.544 134.451 136.309 131.982 135.909" stroke="white" stroke-width="3"/>
<path d="M24.8213 80.0718C24.8213 89.6326 16.8539 107.161 16.8539 107.161C16.8539 107.161 10.3124 78.9677 20.4393 60.5518C34.3082 35.331 50.6457 29.3473 79.3976 30.6743C105.291 31.8694 125.763 40.2075 135.966 64.1371C143.48 81.7602 137.958 109.949 137.958 109.949C137.958 109.949 129.194 95.6082 124.015 78.4784C123.218 81.267 120.031 88.0392 120.031 88.0392C120.031 88.0392 102.503 79.6735 104.495 61.3486C96.129 76.8849 62.6661 84.0555 62.6661 84.0555C62.6661 84.0555 55.0972 72.5028 55.0972 63.3404C49.1217 76.4866 30 92.0228 30 92.0228C30 92.0228 27.6099 87.6408 24.8213 80.0718Z" fill="white" stroke="white" stroke-width="3"/>
</svg>
