<svg width="571" height="559" viewBox="0 0 571 559" fill="none" xmlns="http://www.w3.org/2000/svg">
<mask id="mask0_220_59" style="mask-type:alpha" maskUnits="userSpaceOnUse" x="0" y="2" width="569" height="557">
<rect x="428.711" width="22.5476" height="78.3091" rx="11.2738" transform="rotate(15 428.711 0)" fill="#374151"/>
<rect x="543.603" y="21.6769" width="22.5476" height="103.456" rx="11.2738" transform="rotate(45 543.603 21.6769)" fill="#374151"/>
<rect x="565.165" y="126.83" width="22.5476" height="57.2069" rx="11.2738" transform="rotate(75 565.165 126.83)" fill="#374151"/>
<path d="M485.177 341.032C485.177 401.34 483.603 453.847 456.689 491.586C430.11 528.854 377.618 553.053 271.747 553.053C162.995 553.053 110.582 528.825 84.7267 491.635C71.7001 472.898 65.044 450.386 61.6879 424.855C58.3258 399.277 58.3176 371.077 58.3176 341.032C58.3176 223.967 153.843 129.012 271.747 129.012C389.652 129.012 485.177 223.967 485.177 341.032Z" stroke="#374151" stroke-width="10"/>
<path d="M56.1366 362.17C19.4968 359.352 1.17676 376.263 5.6674 409.23C9.1817 435.029 24.5669 453.647 48.8663 463.069C60.1312 467.437 68.9723 469.839 75.8657 470.681" stroke="#374151" stroke-width="10"/>
<path d="M274.297 418.635C274.239 420.179 273.142 422.295 269.83 424.195C266.59 426.053 261.854 427.263 256.419 427.058C250.984 426.852 246.352 425.288 243.262 423.19C240.103 421.046 239.169 418.853 239.227 417.309C239.286 415.765 240.382 413.649 243.694 411.749C246.934 409.891 251.67 408.681 257.106 408.886C262.541 409.091 267.172 410.655 270.262 412.753C273.422 414.898 274.356 417.09 274.297 418.635Z" stroke="#374151" stroke-width="10"/>
<path d="M304.16 470.189C293.868 476.892 282.343 471.57 269.614 470.189C268.732 470.093 260.713 469.307 256.327 469.23C252.337 469.16 247.026 470.189 244.368 470.547C237.797 471.432 218.267 473.648 211.151 467.862" stroke="#374151" stroke-width="10" stroke-linecap="round"/>
<mask id="path-8-inside-1_220_59" fill="white">
<path d="M115.367 372.59C114.316 348.486 133.004 328.094 157.108 327.043L159.924 326.92C184.028 325.869 204.421 344.557 205.472 368.661L207.201 408.309C207.297 410.516 205.586 412.384 203.379 412.48L160.915 414.332C136.81 415.383 116.418 396.694 115.367 372.59V372.59Z"/>
</mask>
<path d="M115.367 372.59C114.316 348.486 133.004 328.094 157.108 327.043L159.924 326.92C184.028 325.869 204.421 344.557 205.472 368.661L207.201 408.309C207.297 410.516 205.586 412.384 203.379 412.48L160.915 414.332C136.81 415.383 116.418 396.694 115.367 372.59V372.59Z" stroke="#374151" stroke-width="20" mask="url(#path-8-inside-1_220_59)"/>
<path d="M201.99 403.589L201.99 403.602L201.991 403.614C202.085 405.776 200.409 407.606 198.247 407.7L179.588 408.513C171.385 408.871 165.597 406.324 161.225 402.66C156.715 398.88 153.511 393.736 150.972 388.658C147.504 381.721 147.713 372.954 148.053 369.1C148.167 367.811 148.257 366.514 148.317 365.209C148.658 357.836 151.273 350.493 154.645 344.658C156.322 341.755 158.129 339.326 159.823 337.522C161.59 335.641 162.956 334.735 163.685 334.443C170.847 331.578 179.55 334.587 187.329 341.884C195.043 349.119 200.231 359.179 200.578 367.033C200.578 367.037 200.579 367.041 200.579 367.045L201.99 403.589Z" fill="#374151" stroke="#374151" stroke-width="10"/>
<mask id="path-10-inside-2_220_59" fill="white">
<path d="M411.024 379.899C413.22 355.872 395.522 334.614 371.495 332.418L365.354 331.857C341.327 329.661 320.069 347.358 317.873 371.385L314.117 412.479C313.916 414.679 315.536 416.626 317.736 416.827L363.399 421C387.426 423.196 408.684 405.499 410.88 381.472L411.024 379.899Z"/>
</mask>
<path d="M411.024 379.899C413.22 355.872 395.522 334.614 371.495 332.418L365.354 331.857C341.327 329.661 320.069 347.358 317.873 371.385L314.117 412.479C313.916 414.679 315.536 416.626 317.736 416.827L363.399 421C387.426 423.196 408.684 405.499 410.88 381.472L411.024 379.899Z" stroke="#374151" stroke-width="20" mask="url(#path-10-inside-2_220_59)"/>
<path d="M404.709 382.733C400.399 392.631 395.776 397.989 390.368 401.993C386.104 405.149 381.425 407.465 375.53 410.382C373.577 411.349 371.49 412.381 369.242 413.532C360.061 412.783 352.9 411.089 348.075 406.393C343.176 401.627 339.531 392.546 340.985 373.888C342.093 359.672 345.97 351.505 350.77 346.983C355.483 342.541 361.906 340.851 369.922 341.415C378.012 341.985 387.089 347.476 394.121 355.862C400.918 363.968 405.052 373.891 404.709 382.733Z" fill="#374151" stroke="#374151" stroke-width="10"/>
<path d="M488.098 377.976C525.938 375.151 544.858 392.101 540.22 425.142C536.591 451 520.702 469.661 495.606 479.105C485.187 483.025 473.544 482.192 464.812 480.78" stroke="#374151" stroke-width="10"/>
<path d="M85.73 283.254C85.73 317.075 57.5455 379.081 57.5455 379.081C57.5455 379.081 34.4049 279.348 70.2287 214.202C119.29 124.983 177.084 103.816 278.794 108.51C370.393 112.738 442.811 142.234 478.904 226.885C505.484 289.227 485.95 388.946 485.95 388.946C485.95 388.946 454.947 338.214 436.627 277.617C433.809 287.482 422.535 311.439 422.535 311.439C422.535 311.439 360.529 281.845 367.575 217.021C337.981 271.98 219.606 297.346 219.606 297.346C219.606 297.346 192.831 256.479 192.831 224.067C171.693 270.571 104.05 325.531 104.05 325.531C104.05 325.531 95.5948 310.029 85.73 283.254Z" fill="#374151" stroke="#374151" stroke-width="10"/>
</mask>
<g mask="url(#mask0_220_59)">
<rect x="-64" y="-73" width="705" height="705" fill="url(#paint0_linear_220_59)"/>
</g>
<defs>
<linearGradient id="paint0_linear_220_59" x1="232.5" y1="53" x2="289" y2="554.5" gradientUnits="userSpaceOnUse">
<stop stop-color="#9596A2"/>
<stop offset="1" stop-color="#404040"/>
</linearGradient>
</defs>
</svg>
