<svg width="81" height="80" viewBox="0 0 81 80" fill="none" xmlns="http://www.w3.org/2000/svg">
<g clip-path="url(#clip0_166_259)">
<path d="M11.3357 64.5475L21.1826 1.53873C21.2415 1.16218 21.4173 0.813663 21.6851 0.54242C21.9529 0.271176 22.2991 0.0909116 22.6749 0.0270867C23.0506 -0.0367383 23.4369 0.0191025 23.7793 0.186722C24.1216 0.354341 24.4026 0.625267 24.5826 0.961234L34.7663 19.955L38.8251 12.2262C38.9794 11.9331 39.2109 11.6876 39.4945 11.5164C39.7781 11.3452 40.1031 11.2547 40.4344 11.2547C40.7657 11.2547 41.0908 11.3452 41.3744 11.5164C41.658 11.6876 41.8895 11.9331 42.0438 12.2262L69.5251 64.5475H11.3357Z" fill="#FFA000"/>
<path d="M45.3538 40.0032L34.7613 19.9457L11.3357 64.5476L45.3538 40.0032Z" fill="#F57C00"/>
<path d="M69.5251 64.5475L61.9832 17.8775C61.9275 17.5485 61.7823 17.2412 61.5636 16.9892C61.3449 16.7372 61.0611 16.5502 60.7432 16.4487C60.4254 16.3475 60.086 16.3356 59.7619 16.4143C59.4378 16.493 59.1416 16.6593 58.9057 16.895L11.3357 64.5469L37.6576 79.3081C38.4705 79.7619 39.386 80.0001 40.3169 80.0001C41.2479 80.0001 42.1634 79.7619 42.9763 79.3081L69.5251 64.5475Z" fill="#FFCA28"/>
<path d="M61.9833 17.8775C61.9276 17.5485 61.7824 17.2412 61.5637 16.9892C61.345 16.7372 61.0612 16.5503 60.7433 16.4488C60.4256 16.3475 60.0862 16.3354 59.7621 16.414C59.4381 16.4926 59.1418 16.6588 58.9058 16.8944L49.464 26.3613L42.0396 12.2263C41.8853 11.9331 41.6538 11.6877 41.3701 11.5164C41.0865 11.3452 40.7615 11.2547 40.4302 11.2547C40.0989 11.2547 39.7739 11.3452 39.4903 11.5164C39.2066 11.6877 38.9752 11.9331 38.8208 12.2263L34.7621 19.9544L24.5783 0.961264C24.3981 0.624835 24.1166 0.353627 23.7737 0.186045C23.4308 0.0184641 23.0439 -0.0369975 22.6677 0.0275143C22.2918 0.0920084 21.9457 0.27305 21.6783 0.545034C21.4109 0.817018 21.2358 1.16618 21.1777 1.54314L11.3358 64.5475H11.304L11.3352 64.5838L11.5946 64.7113L58.8921 17.3588C59.128 17.1218 59.4246 16.9545 59.7493 16.8752C60.0741 16.7958 60.4144 16.8075 60.733 16.909C61.0515 17.0105 61.3359 17.1978 61.555 17.4503C61.774 17.7029 61.9192 18.0109 61.9746 18.3406L69.4527 64.5925L69.5252 64.5469L61.9833 17.8775ZM11.4221 64.4613L21.1821 1.98876C21.2401 1.6116 21.4152 1.26224 21.6827 0.990122C21.9503 0.718006 22.2966 0.536926 22.6727 0.472514C23.0489 0.408057 23.4359 0.463612 23.7788 0.631309C24.1217 0.799006 24.4032 1.07034 24.5833 1.40689L34.7658 20.4006L38.8252 12.6719C38.9795 12.3787 39.211 12.1333 39.4946 11.9621C39.7783 11.7908 40.1033 11.7003 40.4346 11.7003C40.7659 11.7003 41.0909 11.7908 41.3745 11.9621C41.6582 12.1333 41.8896 12.3787 42.044 12.6719L49.3177 26.5063L11.4208 64.4613H11.4221Z" fill="white" fill-opacity="0.2"/>
<path opacity="0.2" d="M42.9763 78.8625C42.1634 79.3163 41.248 79.5545 40.317 79.5545C39.386 79.5545 38.4705 79.3163 37.6576 78.8625L11.3982 64.1438L11.3345 64.5481L37.6564 79.3044C38.4693 79.7582 39.3847 79.9964 40.3157 79.9964C41.2467 79.9964 42.1622 79.7582 42.9751 79.3044L69.5251 64.5481L69.4564 64.1294L42.9751 78.8638L42.9763 78.8625Z" fill="#A52714"/>
</g>
<defs>
<clipPath id="clip0_166_259">
<rect width="80" height="80" fill="white" transform="translate(0.414551)"/>
</clipPath>
</defs>
</svg>
