<svg width="241" height="48" viewBox="0 0 241 48" fill="none" xmlns="http://www.w3.org/2000/svg">
<g clip-path="url(#clip0_166_276)">
<path d="M201.933 0.0198462V7.61677H185.35V47.5846H177.058V7.61723H160.13V0.0198462H201.933ZM203.797 43.0537C204.381 43.0537 204.892 43.2605 205.325 43.6749C205.763 44.0889 205.982 44.5851 205.988 45.1629C205.986 45.542 205.879 45.9134 205.679 46.2369C205.481 46.5557 205.205 46.82 204.875 47.0054C204.55 47.1975 204.177 47.2975 203.797 47.2943C203.19 47.2943 202.673 47.0871 202.241 46.6731C201.808 46.2586 201.594 45.7569 201.6 45.1629C201.594 44.5851 201.808 44.0891 202.241 43.6749C202.673 43.2605 203.19 43.0537 203.797 43.0537ZM39.4533 47.5846L8.87901 10.1668V47.5652H0.586914V0H10.9513L49.5787 47.2288L49.5792 7.61723L49.5759 0.0198462H91.3785V7.61677H57.8708V19.8383H84.818V27.4357H57.8708V39.9877H91.379V47.5846H39.4533ZM117.954 27.3632L123.388 34.0154L112.253 47.6409H101.371L117.954 27.3632ZM112.253 0.0396923L126.282 17.1951L140.268 0.0923077L151.119 0.0761538L131.715 23.8385L151.151 47.6045H140.268L101.402 0.0396923H112.253ZM217.949 27.2566H221.623V41.1951C221.618 42.4758 221.336 43.5711 220.786 44.4928C220.23 45.4135 219.46 46.1169 218.472 46.6131C217.488 47.1032 216.336 47.3543 215.027 47.3543C213.831 47.3543 212.758 47.142 211.803 46.7275C210.847 46.3131 210.09 45.6918 209.533 44.874C208.971 44.0566 208.695 43.0371 208.695 41.8163H212.376C212.382 42.3503 212.505 42.8132 212.741 43.2009C212.973 43.5837 213.312 43.8921 213.719 44.0889C214.14 44.2966 214.623 44.4003 215.167 44.4C215.758 44.4 216.263 44.28 216.674 44.0345C217.084 43.7945 217.398 43.4348 217.618 42.9554C217.831 42.4809 217.943 41.8925 217.949 41.1946V27.2566ZM236.741 32.7074C236.652 31.8628 236.258 31.2028 235.573 30.7343C234.881 30.2598 233.988 30.0258 232.893 30.0258C232.124 30.0258 231.461 30.1403 230.91 30.3637C230.359 30.5926 229.932 30.8977 229.64 31.2849C229.348 31.6717 229.202 32.1134 229.19 32.6095C229.19 33.0235 229.292 33.3835 229.488 33.6831C229.692 33.9973 229.967 34.2606 230.291 34.452C230.644 34.6703 231.021 34.8477 231.416 34.9805C231.831 35.122 232.247 35.242 232.662 35.3405L234.578 35.8038C235.348 35.9783 236.095 36.2123 236.809 36.5123C237.522 36.8068 238.168 37.1829 238.735 37.6352C239.303 38.0875 239.753 38.6326 240.084 39.2705C240.415 39.9083 240.584 40.6551 240.584 41.5163C240.584 42.6771 240.281 43.6966 239.668 44.5795C239.056 45.4574 238.174 46.1442 237.017 46.6403C235.865 47.1309 234.471 47.3815 232.831 47.3815C231.247 47.3815 229.865 47.1415 228.702 46.662C227.533 46.188 226.623 45.4897 225.965 44.574C225.308 43.6583 224.954 42.5409 224.904 41.2274H228.545C228.595 41.9142 228.82 42.4865 229.202 42.9498C229.589 43.4077 230.095 43.7455 230.713 43.9745C231.337 44.1983 232.033 44.3128 232.803 44.3128C233.606 44.3128 234.314 44.1928 234.926 43.9583C235.533 43.7238 236.011 43.3971 236.354 42.9715C236.702 42.5515 236.876 42.0558 236.882 41.4891C236.876 40.9712 236.718 40.5406 236.415 40.2023C236.106 39.8645 235.679 39.5811 235.134 39.3522C234.584 39.1232 233.943 38.916 233.213 38.7365L230.887 38.1586C229.207 37.7386 227.876 37.1012 226.904 36.2451C225.927 35.3894 225.443 34.2558 225.443 32.8329C225.443 31.6666 225.769 30.6415 226.427 29.7637C227.078 28.8868 227.972 28.2051 229.101 27.72C230.235 27.2294 231.517 26.9894 232.943 26.9894C234.393 26.9894 235.662 27.2294 236.758 27.72C237.853 28.2051 238.713 28.8808 239.336 29.742C239.96 30.6037 240.287 31.59 240.303 32.7074H236.741Z" fill="black"/>
</g>
<defs>
<clipPath id="clip0_166_276">
<rect width="240" height="48" fill="white" transform="translate(0.585449)"/>
</clipPath>
</defs>
</svg>
