<svg width="91" height="80" viewBox="0 0 91 80" fill="none" xmlns="http://www.w3.org/2000/svg">
<g clip-path="url(#clip0_166_269)">
<path d="M74.4416 25.9031C73.4856 25.5752 72.5216 25.2714 71.5503 24.9919C71.7135 24.3252 71.8637 23.6666 71.997 23.0196C74.1858 12.3947 72.7549 3.83503 67.8675 1.01678C63.1816 -1.68497 55.5181 1.13222 47.7784 7.86801C47.0156 8.53301 46.2698 9.21721 45.5416 9.91994C45.0541 9.45267 44.558 8.99446 44.0535 8.54555C35.9419 1.34345 27.8114 -1.69199 22.9293 1.13432C18.2475 3.8445 16.8612 11.8912 18.8317 21.9606C19.0278 22.9579 19.2492 23.95 19.4956 24.9361C18.3447 25.2631 17.2342 25.6112 16.1714 25.9817C6.66122 29.2975 0.587891 34.4936 0.587891 39.8834C0.587891 45.4501 7.10789 51.0336 17.0132 54.4192C17.8162 54.6925 18.6259 54.9458 19.4416 55.1789C19.1768 56.2409 18.9416 57.3101 18.7363 58.3852C16.8577 68.2799 18.3247 76.1364 22.9939 78.8294C27.8163 81.6105 35.9103 78.7522 43.7914 71.8628C44.4304 71.3026 45.0554 70.7266 45.6658 70.1354C46.4544 70.8963 47.2641 71.6351 48.0939 72.3508C55.7282 78.9199 63.2679 81.5726 67.9324 78.8722C72.7503 76.0831 74.3163 67.6431 72.2833 57.3747C72.1232 56.5702 71.9436 55.7698 71.7447 54.974C72.3131 54.8056 72.871 54.6322 73.4149 54.4519C83.7124 51.0403 90.4124 45.5245 90.4124 39.8834C90.4124 34.474 84.143 29.2427 74.4416 25.9031ZM72.2082 50.8098C71.7165 50.9721 71.2136 51.1294 70.6995 51.2817C69.5626 47.6827 68.0286 43.8561 66.151 39.902C67.9426 36.0424 69.4177 32.2645 70.5226 28.6891C71.4416 28.955 72.3331 29.2354 73.1928 29.5312C81.5051 32.3929 86.5753 36.6234 86.5753 39.8834C86.5753 43.3557 81.0995 47.8634 72.2082 50.8098ZM68.5191 58.1199C69.4181 62.6603 69.5461 66.7656 68.9507 69.975C68.416 72.8589 67.3402 74.7813 66.0096 75.5515C63.1791 77.1901 57.1254 75.0603 50.5967 69.442C49.8249 68.7765 49.0717 68.0897 48.3381 67.3824C50.8693 64.6143 53.3988 61.3964 55.8675 57.8224C60.21 57.4371 64.3124 56.807 68.0328 55.947C68.2164 56.6866 68.3785 57.4109 68.5191 58.1199ZM31.211 75.2684C28.4454 76.2449 26.2426 76.2729 24.911 75.5052C22.0777 73.8712 20.8998 67.5627 22.5065 59.101C22.6975 58.1011 22.9162 57.1067 23.1623 56.1189C26.8416 56.9329 30.9142 57.5182 35.2668 57.8712C37.7524 61.3684 40.3549 64.5827 42.9777 67.3975C42.4203 67.9368 41.8497 68.4623 41.2665 68.9736C37.7812 72.0199 34.2889 74.1813 31.211 75.2684ZM18.2546 50.7884C13.8746 49.2912 10.2574 47.3456 7.77807 45.2224C5.55 43.3147 4.42543 41.4203 4.42543 39.8834C4.42543 36.6126 9.30157 32.4406 17.4346 29.6052C18.4216 29.2613 19.4546 28.9368 20.5265 28.6322C21.6507 32.2884 23.1251 36.1112 24.9044 39.9768C23.1019 43.8996 21.6065 47.7834 20.4714 51.4827C19.7269 51.2694 18.9877 51.0379 18.2546 50.7884ZM22.5977 21.2234C20.9096 12.5964 22.0307 6.08871 24.8521 4.45538C27.857 2.71573 34.5019 5.19608 41.5058 11.415C41.9625 11.8215 42.4118 12.2361 42.8535 12.6589C40.2437 15.4613 37.6651 18.6519 35.2016 22.1284C30.977 22.5199 26.9332 23.1487 23.2153 23.9912C22.9861 23.0741 22.7802 22.151 22.5977 21.2234ZM61.344 30.7915C60.4658 29.2747 59.5551 27.7769 58.6124 26.2992C61.4784 26.6617 64.2244 27.1427 66.803 27.7308C66.0289 30.2122 65.064 32.8063 63.9282 35.4659C63.0981 33.8907 62.2365 32.3323 61.344 30.7915ZM45.5433 15.4017C47.3132 17.3192 49.0858 19.4599 50.8293 21.7827C47.2924 21.6157 43.7497 21.615 40.2128 21.7806C41.9581 19.4792 43.7458 17.3413 45.5433 15.4017ZM29.6412 30.8175C28.7599 32.3458 27.9144 33.8946 27.1054 35.4624C25.9882 32.8122 25.0321 30.2063 24.2514 27.6898C26.8142 27.1164 29.5472 26.6477 32.3949 26.2919C31.4418 27.7786 30.5236 29.2877 29.6412 30.8175ZM32.4767 53.7477C29.5346 53.4192 26.7605 52.9747 24.1984 52.4168C24.9914 49.8554 25.9686 47.194 27.11 44.487C27.9222 46.056 28.7712 47.6056 29.6563 49.1347C30.5665 50.7066 31.5089 52.2463 32.4767 53.7477ZM45.6493 64.6354C43.8303 62.6733 42.0163 60.5024 40.2447 58.1677C41.9647 58.235 43.7181 58.2694 45.5002 58.2694C47.331 58.2694 49.1409 58.2284 50.9223 58.1491C49.1732 60.5259 47.4072 62.6999 45.6493 64.6354ZM63.9644 44.3487C65.1651 47.0856 66.177 49.7329 66.9805 52.2505C64.3763 52.8449 61.5644 53.3235 58.6016 53.6789C59.551 52.1738 60.4704 50.65 61.3591 49.1084C62.2628 47.5414 63.1314 45.9544 63.9644 44.3487ZM58.0353 47.1912C56.6745 49.5547 55.2374 51.8735 53.7261 54.1438C50.9884 54.3378 48.2447 54.4341 45.5002 54.4326C42.7047 54.4326 39.9858 54.3456 37.3675 54.1757C35.8167 51.9108 34.3521 49.588 32.977 47.2122C31.6082 44.8492 30.3301 42.4349 29.1447 39.9747C30.3271 37.5139 31.6017 35.0985 32.9658 32.7336L32.9654 32.734C34.3288 30.3684 35.7817 28.0555 37.3209 25.8003C39.9921 25.5982 42.7314 25.4929 45.4998 25.4929C48.2809 25.4929 51.024 25.5992 53.6946 25.8027C55.2182 28.0546 56.6618 30.3595 58.0226 32.7133C59.3911 35.073 60.6825 37.4767 61.8949 39.9203C60.6949 42.3889 59.4076 44.8141 58.0353 47.1912ZM65.951 4.34064C68.9588 6.07538 70.1286 13.0708 68.2388 22.2445C68.1176 22.8302 67.9831 23.4256 67.8353 24.0305C64.1082 23.1701 60.0616 22.5305 55.8247 22.1329C53.3567 18.6182 50.7991 15.4227 48.2317 12.6564C48.9046 12.0079 49.5935 11.3761 50.2977 10.7617C56.9293 4.99082 63.1272 2.71222 65.951 4.34064ZM45.5002 31.8624C49.93 31.8624 53.5212 35.4536 53.5212 39.8834C53.5212 44.3133 49.93 47.9045 45.5002 47.9045C41.0703 47.9045 37.4791 44.3133 37.4791 39.8834C37.4791 35.4536 41.0703 31.8624 45.5002 31.8624Z" fill="#00D8FF"/>
</g>
<defs>
<clipPath id="clip0_166_269">
<rect width="89.8293" height="80" fill="white" transform="translate(0.585449)"/>
</clipPath>
</defs>
</svg>
