<svg width="192" height="80" viewBox="0 0 192 80" fill="none" xmlns="http://www.w3.org/2000/svg">
<g clip-path="url(#clip0_166_271)">
<path d="M191.414 41.1514C191.414 27.5406 184.835 16.8007 172.261 16.8007C159.634 16.8007 151.994 27.5409 151.994 41.0452C151.994 57.0482 161.014 65.1297 173.959 65.1297C180.273 65.1297 185.047 63.6942 188.655 61.674V51.0404C185.048 52.8482 180.909 53.9649 175.657 53.9649C170.51 53.9649 165.948 52.157 165.364 45.8834H191.308C191.308 45.1918 191.414 42.4273 191.414 41.1514ZM165.205 36.1006C165.205 30.0927 168.866 27.5936 172.208 27.5936C175.445 27.5936 178.893 30.0927 178.893 36.1006H165.205ZM131.515 16.8007C126.315 16.8007 122.973 19.2464 121.116 20.948L120.426 17.6516H108.754V79.6441L122.018 76.8265L122.071 61.7802C123.981 63.1626 126.793 65.1297 131.462 65.1297C140.959 65.1297 149.607 57.4736 149.607 40.6198C149.554 25.2011 140.799 16.8007 131.515 16.8007M128.331 53.4329C125.201 53.4329 123.344 52.3166 122.071 50.9342L122.017 31.209C123.397 29.6673 125.307 28.6041 128.331 28.6041C133.159 28.6041 136.502 34.0269 136.502 40.9918C136.502 48.1163 133.212 53.4329 128.331 53.4329ZM90.5029 13.6639L103.82 10.7929V0L90.5029 2.81794V13.6639ZM90.5029 17.7047H103.82V64.2258H90.5029V17.7047ZM76.2313 21.6389L75.3822 17.7047H63.9223V64.2258H77.1863V32.6979C80.3161 28.6041 85.6219 29.3484 87.2667 29.9331V17.7047C85.569 17.0665 79.3615 15.8968 76.2313 21.6389ZM49.7033 6.16748L36.7579 8.93196L36.7049 51.5189C36.7049 59.388 42.5942 65.1828 50.4464 65.1828C54.7968 65.1828 57.98 64.3854 59.7307 63.4284V52.6355C58.0334 53.3267 49.6503 55.7723 49.6503 47.9036V29.0292H59.7307V17.7047H49.6503L49.7033 6.16748ZM13.838 31.209C13.838 29.1357 15.5357 28.3379 18.3481 28.3379C22.3799 28.3379 27.4731 29.5611 31.5054 31.7409V19.2464C27.102 17.492 22.7515 16.8007 18.3481 16.8007C7.57751 16.8007 0.415039 22.4366 0.415039 31.8475C0.415039 46.5211 20.5759 44.1821 20.5759 50.5092C20.5759 52.9544 18.454 53.7522 15.4827 53.7522C11.0793 53.7522 5.45525 51.9443 0.998482 49.4987V62.1525C5.93275 64.2793 10.92 65.1828 15.4827 65.1828C26.5181 65.1828 34.1051 59.7069 34.1051 50.1899C34.0522 34.3462 13.838 37.1637 13.838 31.209Z" fill="#635BFF"/>
</g>
<defs>
<clipPath id="clip0_166_271">
<rect width="191" height="80" fill="white" transform="translate(0.414551)"/>
</clipPath>
</defs>
</svg>
