<svg width="81" height="80" viewBox="0 0 81 80" fill="none" xmlns="http://www.w3.org/2000/svg">
<g clip-path="url(#clip0_166_265)">
<path d="M61.8354 0H19.3354C8.98011 0 0.585449 8.39466 0.585449 18.75V61.25C0.585449 71.6053 8.98011 80 19.3354 80H61.8354C72.1908 80 80.5854 71.6053 80.5854 61.25V18.75C80.5854 8.39466 72.1908 0 61.8354 0Z" fill="#007ACC"/>
<path d="M18.2763 40.2653L18.251 43.5415H28.6635V73.1287H36.0288V43.5415H46.4413V40.3287C46.4413 38.5509 46.4035 37.0653 46.3525 37.0271C46.3144 36.9765 39.9779 36.9509 32.2954 36.9637L18.3144 37.0018L18.2763 40.2653ZM65.1375 36.9087C67.1691 37.4168 68.7185 38.3184 70.1407 39.7912C70.8772 40.5787 71.9691 42.0137 72.0582 42.3565C72.0835 42.4581 68.6041 44.7947 66.4963 46.1025C66.42 46.1534 66.115 45.8231 65.7722 45.3153C64.7438 43.8168 63.6644 43.169 62.0135 43.055C59.5882 42.8897 58.0263 44.1597 58.0391 46.2803C58.0391 46.9025 58.1279 47.2706 58.3819 47.7787C58.915 48.8834 59.9057 49.5437 63.0169 50.8897C68.7438 53.3534 71.1944 54.9787 72.7185 57.2896C74.42 59.8675 74.801 63.9818 73.6454 67.0422C72.3757 70.369 69.2263 72.6293 64.7944 73.3787C63.4232 73.62 60.1722 73.5818 58.6994 73.3153C55.4866 72.7437 52.4391 71.1565 50.5597 69.074C49.8232 68.2612 48.3882 66.1406 48.4772 65.9881C48.515 65.9375 48.8454 65.7343 49.2135 65.5184C49.5691 65.3153 50.9154 64.5406 52.185 63.804L54.4835 62.4706L54.966 63.1818C55.6391 64.2103 57.1119 65.62 58.001 66.0896C60.5532 67.4359 64.0582 67.2453 65.785 65.6962C66.5216 65.0231 66.8263 64.3247 66.8263 63.2962C66.8263 62.369 66.7119 61.9628 66.2294 61.2643C65.6072 60.3756 64.3375 59.6262 60.731 58.0643C56.6041 56.2865 54.8263 55.1818 53.201 53.4293C52.2613 52.4137 51.3722 50.7881 51.0041 49.4293C50.6994 48.2993 50.6232 45.4675 50.8644 44.3247C51.715 40.3375 54.7247 37.5565 59.0675 36.7309C60.4772 36.4643 63.7532 36.5659 65.1375 36.9087Z" fill="white"/>
</g>
<defs>
<clipPath id="clip0_166_265">
<rect width="80" height="80" fill="white" transform="translate(0.585449)"/>
</clipPath>
</defs>
</svg>
